%TF.GenerationSoftware,KiCad,Pcbnew,(6.0.2)*%
%TF.CreationDate,2022-04-12T00:42:21+02:00*%
%TF.ProjectId,raspi_game,72617370-695f-4676-916d-652e6b696361,rev?*%
%TF.SameCoordinates,Original*%
%TF.FileFunction,Soldermask,Bot*%
%TF.FilePolarity,Negative*%
%FSLAX46Y46*%
G04 Gerber Fmt 4.6, Leading zero omitted, Abs format (unit mm)*
G04 Created by KiCad (PCBNEW (6.0.2)) date 2022-04-12 00:42:21*
%MOMM*%
%LPD*%
G01*
G04 APERTURE LIST*
G04 Aperture macros list*
%AMOutline5P*
0 Free polygon, 5 corners , with rotation*
0 The origin of the aperture is its center*
0 number of corners: always 5*
0 $1 to $10 corner X, Y*
0 $11 Rotation angle, in degrees counterclockwise*
0 create outline with 5 corners*
4,1,5,$1,$2,$3,$4,$5,$6,$7,$8,$9,$10,$1,$2,$11*%
%AMOutline6P*
0 Free polygon, 6 corners , with rotation*
0 The origin of the aperture is its center*
0 number of corners: always 6*
0 $1 to $12 corner X, Y*
0 $13 Rotation angle, in degrees counterclockwise*
0 create outline with 6 corners*
4,1,6,$1,$2,$3,$4,$5,$6,$7,$8,$9,$10,$11,$12,$1,$2,$13*%
%AMOutline7P*
0 Free polygon, 7 corners , with rotation*
0 The origin of the aperture is its center*
0 number of corners: always 7*
0 $1 to $14 corner X, Y*
0 $15 Rotation angle, in degrees counterclockwise*
0 create outline with 7 corners*
4,1,7,$1,$2,$3,$4,$5,$6,$7,$8,$9,$10,$11,$12,$13,$14,$1,$2,$15*%
%AMOutline8P*
0 Free polygon, 8 corners , with rotation*
0 The origin of the aperture is its center*
0 number of corners: always 8*
0 $1 to $16 corner X, Y*
0 $17 Rotation angle, in degrees counterclockwise*
0 create outline with 8 corners*
4,1,8,$1,$2,$3,$4,$5,$6,$7,$8,$9,$10,$11,$12,$13,$14,$15,$16,$1,$2,$17*%
G04 Aperture macros list end*
%ADD10C,3.200000*%
%ADD11C,0.900000*%
%ADD12C,2.750000*%
%ADD13R,1.508000X1.508000*%
%ADD14C,1.508000*%
%ADD15C,2.500000*%
%ADD16Outline8P,-0.900000X0.450000X-0.450000X0.900000X0.450000X0.900000X0.900000X0.450000X0.900000X-0.450000X0.450000X-0.900000X-0.450000X-0.900000X-0.900000X-0.450000X180.000000*%
%ADD17C,2.600000*%
%ADD18C,2.400000*%
%ADD19C,2.000000*%
%ADD20C,0.650000*%
%ADD21R,0.300000X1.150000*%
%ADD22O,1.000000X1.600000*%
%ADD23O,1.000000X2.100000*%
G04 APERTURE END LIST*
D10*
%TO.C,REF\u002A\u002A*%
X76200000Y-70485000D03*
%TD*%
%TO.C,REF\u002A\u002A*%
X76200000Y-112395000D03*
%TD*%
D11*
%TO.C,SW9*%
X168812000Y-65405000D03*
X175612000Y-65405000D03*
%TD*%
D12*
%TO.C,A1*%
X162350000Y-68260000D03*
X104350000Y-91260000D03*
X162350000Y-91260000D03*
X104350000Y-68260000D03*
D13*
X109220000Y-69530000D03*
D14*
X109220000Y-66990000D03*
X111760000Y-69530000D03*
X111760000Y-66990000D03*
X114300000Y-69530000D03*
X114300000Y-66990000D03*
X116840000Y-69530000D03*
X116840000Y-66990000D03*
X119380000Y-69530000D03*
X119380000Y-66990000D03*
X121920000Y-69530000D03*
X121920000Y-66990000D03*
X124460000Y-69530000D03*
X124460000Y-66990000D03*
X127000000Y-69530000D03*
X127000000Y-66990000D03*
X129540000Y-69530000D03*
X129540000Y-66990000D03*
X132080000Y-69530000D03*
X132080000Y-66990000D03*
X134620000Y-69530000D03*
X134620000Y-66990000D03*
X137160000Y-69530000D03*
X137160000Y-66990000D03*
X139700000Y-69530000D03*
X139700000Y-66990000D03*
X142240000Y-69530000D03*
X142240000Y-66990000D03*
X144780000Y-69530000D03*
X144780000Y-66990000D03*
X147320000Y-69530000D03*
X147320000Y-66990000D03*
X149860000Y-69530000D03*
X149860000Y-66990000D03*
X152400000Y-69530000D03*
X152400000Y-66990000D03*
X154940000Y-69530000D03*
X154940000Y-66990000D03*
X157480000Y-69530000D03*
X157480000Y-66990000D03*
%TD*%
D10*
%TO.C,REF\u002A\u002A*%
X190500000Y-112395000D03*
%TD*%
%TO.C,REF\u002A\u002A*%
X190500000Y-70485000D03*
%TD*%
D15*
%TO.C,U1*%
X107950000Y-76835000D03*
X158750000Y-76835000D03*
X158750000Y-106045000D03*
X107950000Y-106045000D03*
D16*
X107950000Y-102870000D03*
X107950000Y-100330000D03*
X107950000Y-97790000D03*
X107950000Y-95250000D03*
X107950000Y-92710000D03*
X107950000Y-90170000D03*
X107950000Y-87630000D03*
X107950000Y-85090000D03*
X107950000Y-82550000D03*
X107950000Y-80010000D03*
%TD*%
D17*
%TO.C,U4*%
X148994000Y-115610000D03*
X148994000Y-97750000D03*
D18*
X117616000Y-100382000D03*
X117616000Y-112978000D03*
D19*
X138684000Y-116880000D03*
X136144000Y-116880000D03*
X133604000Y-116880000D03*
X131064000Y-116880000D03*
X128524000Y-116880000D03*
X125984000Y-116880000D03*
X123444000Y-116880000D03*
X120904000Y-116880000D03*
%TD*%
%TO.C,U3*%
X182880000Y-106705400D03*
X180340000Y-106705400D03*
X177800000Y-106705400D03*
X175260000Y-106705400D03*
X172720000Y-106705400D03*
X170180000Y-106705400D03*
X167640000Y-106705400D03*
%TD*%
D20*
%TO.C,J1*%
X88169000Y-69280000D03*
X93949000Y-69280000D03*
D21*
X87709000Y-70345000D03*
X88509000Y-70345000D03*
X89809000Y-70345000D03*
X90809000Y-70345000D03*
X91309000Y-70345000D03*
X92309000Y-70345000D03*
X93609000Y-70345000D03*
X94409000Y-70345000D03*
X94109000Y-70345000D03*
X93309000Y-70345000D03*
X92809000Y-70345000D03*
X91809000Y-70345000D03*
X90309000Y-70345000D03*
X89309000Y-70345000D03*
X88809000Y-70345000D03*
X88009000Y-70345000D03*
D22*
X95379000Y-65600000D03*
D23*
X86739000Y-69780000D03*
X95379000Y-69780000D03*
D22*
X86739000Y-65600000D03*
%TD*%
M02*
