%TF.GenerationSoftware,KiCad,Pcbnew,(6.0.2)*%
%TF.CreationDate,2022-04-12T00:42:21+02:00*%
%TF.ProjectId,raspi_game,72617370-695f-4676-916d-652e6b696361,rev?*%
%TF.SameCoordinates,Original*%
%TF.FileFunction,Legend,Bot*%
%TF.FilePolarity,Positive*%
%FSLAX46Y46*%
G04 Gerber Fmt 4.6, Leading zero omitted, Abs format (unit mm)*
G04 Created by KiCad (PCBNEW (6.0.2)) date 2022-04-12 00:42:21*
%MOMM*%
%LPD*%
G01*
G04 APERTURE LIST*
%ADD10C,0.150000*%
%ADD11C,0.127000*%
%ADD12C,0.120000*%
G04 APERTURE END LIST*
D10*
%TO.C,U4*%
X134111904Y-105632380D02*
X134111904Y-106441904D01*
X134064285Y-106537142D01*
X134016666Y-106584761D01*
X133921428Y-106632380D01*
X133730952Y-106632380D01*
X133635714Y-106584761D01*
X133588095Y-106537142D01*
X133540476Y-106441904D01*
X133540476Y-105632380D01*
X132635714Y-105965714D02*
X132635714Y-106632380D01*
X132873809Y-105584761D02*
X133111904Y-106299047D01*
X132492857Y-106299047D01*
X121273819Y-114662928D02*
X121273819Y-114472452D01*
X121226200Y-114377214D01*
X121130961Y-114281976D01*
X120940485Y-114234357D01*
X120607152Y-114234357D01*
X120416676Y-114281976D01*
X120321438Y-114377214D01*
X120273819Y-114472452D01*
X120273819Y-114662928D01*
X120321438Y-114758166D01*
X120416676Y-114853404D01*
X120607152Y-114901023D01*
X120940485Y-114901023D01*
X121130961Y-114853404D01*
X121226200Y-114758166D01*
X121273819Y-114662928D01*
X121273819Y-113805785D02*
X120464295Y-113805785D01*
X120369057Y-113758166D01*
X120321438Y-113710547D01*
X120273819Y-113615309D01*
X120273819Y-113424833D01*
X120321438Y-113329595D01*
X120369057Y-113281976D01*
X120464295Y-113234357D01*
X121273819Y-113234357D01*
X121273819Y-112901023D02*
X121273819Y-112329595D01*
X120273819Y-112615309D02*
X121273819Y-112615309D01*
X125353819Y-114377214D02*
X125353819Y-114853404D01*
X126353819Y-114853404D01*
X125877628Y-113710547D02*
X125830009Y-113567690D01*
X125782390Y-113520071D01*
X125687152Y-113472452D01*
X125544295Y-113472452D01*
X125449057Y-113520071D01*
X125401438Y-113567690D01*
X125353819Y-113662928D01*
X125353819Y-114043880D01*
X126353819Y-114043880D01*
X126353819Y-113710547D01*
X126306200Y-113615309D01*
X126258580Y-113567690D01*
X126163342Y-113520071D01*
X126068104Y-113520071D01*
X125972866Y-113567690D01*
X125925247Y-113615309D01*
X125877628Y-113710547D01*
X125877628Y-114043880D01*
X126353819Y-112853404D02*
X126353819Y-112662928D01*
X126306200Y-112567690D01*
X126210961Y-112472452D01*
X126020485Y-112424833D01*
X125687152Y-112424833D01*
X125496676Y-112472452D01*
X125401438Y-112567690D01*
X125353819Y-112662928D01*
X125353819Y-112853404D01*
X125401438Y-112948642D01*
X125496676Y-113043880D01*
X125687152Y-113091500D01*
X126020485Y-113091500D01*
X126210961Y-113043880D01*
X126306200Y-112948642D01*
X126353819Y-112853404D01*
X123766200Y-114329595D02*
X123813819Y-114424833D01*
X123813819Y-114567690D01*
X123766200Y-114710547D01*
X123670961Y-114805785D01*
X123575723Y-114853404D01*
X123385247Y-114901023D01*
X123242390Y-114901023D01*
X123051914Y-114853404D01*
X122956676Y-114805785D01*
X122861438Y-114710547D01*
X122813819Y-114567690D01*
X122813819Y-114472452D01*
X122861438Y-114329595D01*
X122909057Y-114281976D01*
X123242390Y-114281976D01*
X123242390Y-114472452D01*
X122813819Y-113853404D02*
X123813819Y-113853404D01*
X122813819Y-113281976D01*
X123813819Y-113281976D01*
X122813819Y-112805785D02*
X123813819Y-112805785D01*
X123813819Y-112567690D01*
X123766200Y-112424833D01*
X123670961Y-112329595D01*
X123575723Y-112281976D01*
X123385247Y-112234357D01*
X123242390Y-112234357D01*
X123051914Y-112281976D01*
X122956676Y-112329595D01*
X122861438Y-112424833D01*
X122813819Y-112567690D01*
X122813819Y-112805785D01*
X130957628Y-114853404D02*
X130957628Y-114520071D01*
X130433819Y-114377214D02*
X130433819Y-114853404D01*
X131433819Y-114853404D01*
X131433819Y-114377214D01*
X130433819Y-113948642D02*
X131433819Y-113948642D01*
X130433819Y-113377214D01*
X131433819Y-113377214D01*
X133973819Y-114996261D02*
X132973819Y-114662928D01*
X133973819Y-114329595D01*
X133021438Y-114043880D02*
X132973819Y-113901023D01*
X132973819Y-113662928D01*
X133021438Y-113567690D01*
X133069057Y-113520071D01*
X133164295Y-113472452D01*
X133259533Y-113472452D01*
X133354771Y-113520071D01*
X133402390Y-113567690D01*
X133450009Y-113662928D01*
X133497628Y-113853404D01*
X133545247Y-113948642D01*
X133592866Y-113996261D01*
X133688104Y-114043880D01*
X133783342Y-114043880D01*
X133878580Y-113996261D01*
X133926200Y-113948642D01*
X133973819Y-113853404D01*
X133973819Y-113615309D01*
X133926200Y-113472452D01*
X139231619Y-114980404D02*
X138422095Y-114980404D01*
X138326857Y-114932785D01*
X138279238Y-114885166D01*
X138231619Y-114789928D01*
X138231619Y-114599452D01*
X138279238Y-114504214D01*
X138326857Y-114456595D01*
X138422095Y-114408976D01*
X139231619Y-114408976D01*
X138279238Y-113980404D02*
X138231619Y-113837547D01*
X138231619Y-113599452D01*
X138279238Y-113504214D01*
X138326857Y-113456595D01*
X138422095Y-113408976D01*
X138517333Y-113408976D01*
X138612571Y-113456595D01*
X138660190Y-113504214D01*
X138707809Y-113599452D01*
X138755428Y-113789928D01*
X138803047Y-113885166D01*
X138850666Y-113932785D01*
X138945904Y-113980404D01*
X139041142Y-113980404D01*
X139136380Y-113932785D01*
X139184000Y-113885166D01*
X139231619Y-113789928D01*
X139231619Y-113551833D01*
X139184000Y-113408976D01*
X138755428Y-112647071D02*
X138707809Y-112504214D01*
X138660190Y-112456595D01*
X138564952Y-112408976D01*
X138422095Y-112408976D01*
X138326857Y-112456595D01*
X138279238Y-112504214D01*
X138231619Y-112599452D01*
X138231619Y-112980404D01*
X139231619Y-112980404D01*
X139231619Y-112647071D01*
X139184000Y-112551833D01*
X139136380Y-112504214D01*
X139041142Y-112456595D01*
X138945904Y-112456595D01*
X138850666Y-112504214D01*
X138803047Y-112551833D01*
X138755428Y-112647071D01*
X138755428Y-112980404D01*
X128846200Y-114329595D02*
X128893819Y-114424833D01*
X128893819Y-114567690D01*
X128846200Y-114710547D01*
X128750961Y-114805785D01*
X128655723Y-114853404D01*
X128465247Y-114901023D01*
X128322390Y-114901023D01*
X128131914Y-114853404D01*
X128036676Y-114805785D01*
X127941438Y-114710547D01*
X127893819Y-114567690D01*
X127893819Y-114472452D01*
X127941438Y-114329595D01*
X127989057Y-114281976D01*
X128322390Y-114281976D01*
X128322390Y-114472452D01*
X127893819Y-113853404D02*
X128893819Y-113853404D01*
X127893819Y-113281976D01*
X128893819Y-113281976D01*
X127893819Y-112805785D02*
X128893819Y-112805785D01*
X128893819Y-112567690D01*
X128846200Y-112424833D01*
X128750961Y-112329595D01*
X128655723Y-112281976D01*
X128465247Y-112234357D01*
X128322390Y-112234357D01*
X128131914Y-112281976D01*
X128036676Y-112329595D01*
X127941438Y-112424833D01*
X127893819Y-112567690D01*
X127893819Y-112805785D01*
X136215428Y-114647071D02*
X136167809Y-114504214D01*
X136120190Y-114456595D01*
X136024952Y-114408976D01*
X135882095Y-114408976D01*
X135786857Y-114456595D01*
X135739238Y-114504214D01*
X135691619Y-114599452D01*
X135691619Y-114980404D01*
X136691619Y-114980404D01*
X136691619Y-114647071D01*
X136644000Y-114551833D01*
X136596380Y-114504214D01*
X136501142Y-114456595D01*
X136405904Y-114456595D01*
X136310666Y-114504214D01*
X136263047Y-114551833D01*
X136215428Y-114647071D01*
X136215428Y-114980404D01*
X135977333Y-114028023D02*
X135977333Y-113551833D01*
X135691619Y-114123261D02*
X136691619Y-113789928D01*
X135691619Y-113456595D01*
X136691619Y-113266119D02*
X136691619Y-112694690D01*
X135691619Y-112980404D02*
X136691619Y-112980404D01*
%TO.C,U3*%
X176021904Y-98647380D02*
X176021904Y-99456904D01*
X175974285Y-99552142D01*
X175926666Y-99599761D01*
X175831428Y-99647380D01*
X175640952Y-99647380D01*
X175545714Y-99599761D01*
X175498095Y-99552142D01*
X175450476Y-99456904D01*
X175450476Y-98647380D01*
X175069523Y-98647380D02*
X174450476Y-98647380D01*
X174783809Y-99028333D01*
X174640952Y-99028333D01*
X174545714Y-99075952D01*
X174498095Y-99123571D01*
X174450476Y-99218809D01*
X174450476Y-99456904D01*
X174498095Y-99552142D01*
X174545714Y-99599761D01*
X174640952Y-99647380D01*
X174926666Y-99647380D01*
X175021904Y-99599761D01*
X175069523Y-99552142D01*
X175760000Y-103915595D02*
X175807619Y-104010833D01*
X175807619Y-104153690D01*
X175760000Y-104296547D01*
X175664761Y-104391785D01*
X175569523Y-104439404D01*
X175379047Y-104487023D01*
X175236190Y-104487023D01*
X175045714Y-104439404D01*
X174950476Y-104391785D01*
X174855238Y-104296547D01*
X174807619Y-104153690D01*
X174807619Y-104058452D01*
X174855238Y-103915595D01*
X174902857Y-103867976D01*
X175236190Y-103867976D01*
X175236190Y-104058452D01*
X175093333Y-103487023D02*
X175093333Y-103010833D01*
X174807619Y-103582261D02*
X175807619Y-103248928D01*
X174807619Y-102915595D01*
X174807619Y-102582261D02*
X175807619Y-102582261D01*
X174807619Y-102106071D02*
X175807619Y-102106071D01*
X174807619Y-101534642D01*
X175807619Y-101534642D01*
X182427619Y-103963214D02*
X182427619Y-104439404D01*
X183427619Y-104439404D01*
X182427619Y-103058452D02*
X182903809Y-103391785D01*
X182427619Y-103629880D02*
X183427619Y-103629880D01*
X183427619Y-103248928D01*
X183380000Y-103153690D01*
X183332380Y-103106071D01*
X183237142Y-103058452D01*
X183094285Y-103058452D01*
X182999047Y-103106071D01*
X182951428Y-103153690D01*
X182903809Y-103248928D01*
X182903809Y-103629880D01*
X182522857Y-102058452D02*
X182475238Y-102106071D01*
X182427619Y-102248928D01*
X182427619Y-102344166D01*
X182475238Y-102487023D01*
X182570476Y-102582261D01*
X182665714Y-102629880D01*
X182856190Y-102677500D01*
X182999047Y-102677500D01*
X183189523Y-102629880D01*
X183284761Y-102582261D01*
X183380000Y-102487023D01*
X183427619Y-102344166D01*
X183427619Y-102248928D01*
X183380000Y-102106071D01*
X183332380Y-102058452D01*
X182427619Y-101153690D02*
X182427619Y-101629880D01*
X183427619Y-101629880D01*
X182427619Y-100820357D02*
X183427619Y-100820357D01*
X182427619Y-100248928D02*
X182999047Y-100677500D01*
X183427619Y-100248928D02*
X182856190Y-100820357D01*
X172315238Y-104487023D02*
X172267619Y-104344166D01*
X172267619Y-104106071D01*
X172315238Y-104010833D01*
X172362857Y-103963214D01*
X172458095Y-103915595D01*
X172553333Y-103915595D01*
X172648571Y-103963214D01*
X172696190Y-104010833D01*
X172743809Y-104106071D01*
X172791428Y-104296547D01*
X172839047Y-104391785D01*
X172886666Y-104439404D01*
X172981904Y-104487023D01*
X173077142Y-104487023D01*
X173172380Y-104439404D01*
X173220000Y-104391785D01*
X173267619Y-104296547D01*
X173267619Y-104058452D01*
X173220000Y-103915595D01*
X172267619Y-103487023D02*
X173267619Y-103487023D01*
X173267619Y-103248928D01*
X173220000Y-103106071D01*
X173124761Y-103010833D01*
X173029523Y-102963214D01*
X172839047Y-102915595D01*
X172696190Y-102915595D01*
X172505714Y-102963214D01*
X172410476Y-103010833D01*
X172315238Y-103106071D01*
X172267619Y-103248928D01*
X172267619Y-103487023D01*
X177347619Y-104439404D02*
X178347619Y-104439404D01*
X178347619Y-104201309D01*
X178300000Y-104058452D01*
X178204761Y-103963214D01*
X178109523Y-103915595D01*
X177919047Y-103867976D01*
X177776190Y-103867976D01*
X177585714Y-103915595D01*
X177490476Y-103963214D01*
X177395238Y-104058452D01*
X177347619Y-104201309D01*
X177347619Y-104439404D01*
X177347619Y-103439404D02*
X178347619Y-103439404D01*
X177347619Y-102963214D02*
X178347619Y-102963214D01*
X177347619Y-102391785D01*
X178347619Y-102391785D01*
X170680000Y-103915595D02*
X170727619Y-104010833D01*
X170727619Y-104153690D01*
X170680000Y-104296547D01*
X170584761Y-104391785D01*
X170489523Y-104439404D01*
X170299047Y-104487023D01*
X170156190Y-104487023D01*
X169965714Y-104439404D01*
X169870476Y-104391785D01*
X169775238Y-104296547D01*
X169727619Y-104153690D01*
X169727619Y-104058452D01*
X169775238Y-103915595D01*
X169822857Y-103867976D01*
X170156190Y-103867976D01*
X170156190Y-104058452D01*
X169727619Y-103439404D02*
X170727619Y-103439404D01*
X169727619Y-102867976D01*
X170727619Y-102867976D01*
X169727619Y-102391785D02*
X170727619Y-102391785D01*
X170727619Y-102153690D01*
X170680000Y-102010833D01*
X170584761Y-101915595D01*
X170489523Y-101867976D01*
X170299047Y-101820357D01*
X170156190Y-101820357D01*
X169965714Y-101867976D01*
X169870476Y-101915595D01*
X169775238Y-102010833D01*
X169727619Y-102153690D01*
X169727619Y-102391785D01*
X180411428Y-104106071D02*
X180363809Y-103963214D01*
X180316190Y-103915595D01*
X180220952Y-103867976D01*
X180078095Y-103867976D01*
X179982857Y-103915595D01*
X179935238Y-103963214D01*
X179887619Y-104058452D01*
X179887619Y-104439404D01*
X180887619Y-104439404D01*
X180887619Y-104106071D01*
X180840000Y-104010833D01*
X180792380Y-103963214D01*
X180697142Y-103915595D01*
X180601904Y-103915595D01*
X180506666Y-103963214D01*
X180459047Y-104010833D01*
X180411428Y-104106071D01*
X180411428Y-104439404D01*
X179982857Y-102867976D02*
X179935238Y-102915595D01*
X179887619Y-103058452D01*
X179887619Y-103153690D01*
X179935238Y-103296547D01*
X180030476Y-103391785D01*
X180125714Y-103439404D01*
X180316190Y-103487023D01*
X180459047Y-103487023D01*
X180649523Y-103439404D01*
X180744761Y-103391785D01*
X180840000Y-103296547D01*
X180887619Y-103153690D01*
X180887619Y-103058452D01*
X180840000Y-102915595D01*
X180792380Y-102867976D01*
X179887619Y-101963214D02*
X179887619Y-102439404D01*
X180887619Y-102439404D01*
X179887619Y-101629880D02*
X180887619Y-101629880D01*
X179887619Y-101058452D02*
X180459047Y-101487023D01*
X180887619Y-101058452D02*
X180316190Y-101629880D01*
X168187619Y-104582261D02*
X167187619Y-104248928D01*
X168187619Y-103915595D01*
X167187619Y-103582261D02*
X168187619Y-103582261D01*
X167187619Y-103106071D02*
X168187619Y-103106071D01*
X167187619Y-102534642D01*
X168187619Y-102534642D01*
%TO.C,J1*%
X91392333Y-71842380D02*
X91392333Y-72556666D01*
X91439952Y-72699523D01*
X91535190Y-72794761D01*
X91678047Y-72842380D01*
X91773285Y-72842380D01*
X90392333Y-72842380D02*
X90963761Y-72842380D01*
X90678047Y-72842380D02*
X90678047Y-71842380D01*
X90773285Y-71985238D01*
X90868523Y-72080476D01*
X90963761Y-72128095D01*
D11*
%TO.C,A1*%
X165850000Y-67760000D02*
X165850000Y-91760000D01*
X100850000Y-91760000D02*
X100850000Y-67760000D01*
X128950000Y-94760000D02*
X120600000Y-94760000D01*
X116350000Y-94760000D02*
X108000000Y-94760000D01*
X103850000Y-64760000D02*
X162850000Y-64760000D01*
X162850000Y-94760000D02*
X103850000Y-94760000D01*
X162850000Y-94760000D02*
G75*
G03*
X165850000Y-91760000I-1J3000001D01*
G01*
X165850000Y-67760000D02*
G75*
G03*
X162850000Y-64760000I-3000001J-1D01*
G01*
X100850000Y-91760000D02*
G75*
G03*
X103850000Y-94760000I3000001J1D01*
G01*
X103850000Y-64760000D02*
G75*
G03*
X100850000Y-67760000I1J-3000001D01*
G01*
D12*
%TO.C,U4*%
X149011000Y-118491000D02*
X117435000Y-118491000D01*
X114935000Y-115991000D02*
X114935000Y-98004000D01*
X149011000Y-95504000D02*
X117435000Y-95504000D01*
X151511000Y-98004000D02*
X151511000Y-115991000D01*
X114935000Y-115991000D02*
G75*
G03*
X117435000Y-118491000I2500000J0D01*
G01*
X117435000Y-95504000D02*
G75*
G03*
X114935000Y-98004000I0J-2500000D01*
G01*
X149011000Y-118491000D02*
G75*
G03*
X151511000Y-115991000I0J2500000D01*
G01*
X151511000Y-98004000D02*
G75*
G03*
X149011000Y-95504000I-2500000J0D01*
G01*
%TO.C,U3*%
X166370000Y-106680000D02*
X166370000Y-92710000D01*
X184150000Y-106680000D02*
X184150000Y-92710000D01*
X181610000Y-90170000D02*
X168910000Y-90170000D01*
X181610000Y-109245400D02*
X168910000Y-109245400D01*
X168910000Y-90170000D02*
G75*
G03*
X166370000Y-92710000I1J-2540001D01*
G01*
X166370000Y-106705400D02*
G75*
G03*
X168910000Y-109245400I2540001J1D01*
G01*
X184150000Y-92710000D02*
G75*
G03*
X181610000Y-90170000I-2540004J-4D01*
G01*
X181610000Y-109245400D02*
G75*
G03*
X184150000Y-106705400I-4J2540004D01*
G01*
%TO.C,J1*%
X95639000Y-66605000D02*
X95639000Y-68525000D01*
X86479000Y-68525000D02*
X86479000Y-66605000D01*
%TD*%
M02*
