M48
; DRILL file {KiCad (6.0.2)} date Mon Apr 11 21:49:58 2022
; FORMAT={-:-/ absolute / inch / decimal}
; #@! TF.CreationDate,2022-04-11T21:49:58+02:00
; #@! TF.GenerationSoftware,Kicad,Pcbnew,(6.0.2)
; #@! TF.FileFunction,Plated,1,2,PTH
FMAT,2
INCH
; #@! TA.AperFunction,Plated,PTH,ViaDrill
T1C0.0157
; #@! TA.AperFunction,Plated,PTH,ComponentDrill
T2C0.0236
; #@! TA.AperFunction,Plated,PTH,ComponentDrill
T3C0.0300
; #@! TA.AperFunction,Plated,PTH,ComponentDrill
T4C0.0315
; #@! TA.AperFunction,Plated,PTH,ComponentDrill
T5C0.0394
%
G90
G05
T1
X3.35Y-3.5213
X3.4Y-3.475
X3.4Y-3.575
X3.45Y-3.5213
X3.455Y-2.83
X3.558Y-2.844
X3.666Y-2.824
X3.71Y-2.83
X3.78Y-2.88
X3.78Y-2.925
X4.22Y-2.8
X4.225Y-2.55
X4.865Y-3.475
X5.14Y-3.365
X6.78Y-2.785
X7.05Y-3.5213
X7.1Y-3.475
X7.1Y-3.575
X7.15Y-3.5213
T3
X4.25Y-3.15
X4.25Y-3.25
X4.25Y-3.35
X4.25Y-3.45
X4.25Y-3.55
X4.25Y-3.65
X4.25Y-3.75
X4.25Y-3.85
X4.25Y-3.95
X4.25Y-4.05
T4
X4.76Y-4.6016
X4.86Y-4.6016
X4.96Y-4.6016
X5.06Y-4.6016
X5.16Y-4.6016
X5.26Y-4.6016
X5.36Y-4.6016
X5.46Y-4.6016
X6.6Y-4.201
X6.7Y-4.201
X6.8Y-4.201
X6.9Y-4.201
X7.0Y-4.201
X7.1Y-4.201
X7.2Y-4.201
T5
X4.3Y-2.6374
X4.3Y-2.7374
X4.4Y-2.6374
X4.4Y-2.7374
X4.5Y-2.6374
X4.5Y-2.7374
X4.6Y-2.6374
X4.6Y-2.7374
X4.7Y-2.6374
X4.7Y-2.7374
X4.8Y-2.6374
X4.8Y-2.7374
X4.9Y-2.6374
X4.9Y-2.7374
X5.0Y-2.6374
X5.0Y-2.7374
X5.1Y-2.6374
X5.1Y-2.7374
X5.2Y-2.6374
X5.2Y-2.7374
X5.3Y-2.6374
X5.3Y-2.7374
X5.4Y-2.6374
X5.4Y-2.7374
X5.5Y-2.6374
X5.5Y-2.7374
X5.6Y-2.6374
X5.6Y-2.7374
X5.7Y-2.6374
X5.7Y-2.7374
X5.8Y-2.6374
X5.8Y-2.7374
X5.9Y-2.6374
X5.9Y-2.7374
X6.0Y-2.6374
X6.0Y-2.7374
X6.1Y-2.6374
X6.1Y-2.7374
X6.2Y-2.6374
X6.2Y-2.7374
T2
G00X3.4149Y-2.5709
M15
G01X3.4149Y-2.5945
M16
G05
G00X3.4149Y-2.7256
M15
G01X3.4149Y-2.7689
M16
G05
G00X3.7551Y-2.5709
M15
G01X3.7551Y-2.5945
M16
G05
G00X3.7551Y-2.7256
M15
G01X3.7551Y-2.7689
M16
G05
T0
M30
