M48
; DRILL file {KiCad (6.0.2)} date Mon Apr 11 21:49:58 2022
; FORMAT={-:-/ absolute / inch / decimal}
; #@! TF.CreationDate,2022-04-11T21:49:58+02:00
; #@! TF.GenerationSoftware,Kicad,Pcbnew,(6.0.2)
; #@! TF.FileFunction,NonPlated,1,2,NPTH
FMAT,2
INCH
; #@! TA.AperFunction,NonPlated,NPTH,ComponentDrill
T1C0.0256
; #@! TA.AperFunction,NonPlated,NPTH,ComponentDrill
T2C0.0354
; #@! TA.AperFunction,NonPlated,NPTH,ComponentDrill
T3C0.0945
; #@! TA.AperFunction,NonPlated,NPTH,ComponentDrill
T4C0.0984
; #@! TA.AperFunction,NonPlated,NPTH,ComponentDrill
T5C0.1024
; #@! TA.AperFunction,NonPlated,NPTH,ComponentDrill
T6C0.1083
; #@! TA.AperFunction,NonPlated,NPTH,ComponentDrill
T7C0.1260
%
G90
G05
T1
X3.4712Y-2.7276
X3.6988Y-2.7276
T2
X6.6461Y-2.575
X6.9139Y-2.575
T3
X4.6306Y-3.952
X4.6306Y-4.448
T4
X4.25Y-3.025
X4.25Y-4.175
X6.25Y-3.025
X6.25Y-4.175
T5
X5.8659Y-3.8484
X5.8659Y-4.5516
T6
X4.1083Y-2.6874
X4.1083Y-3.5929
X6.3917Y-2.6874
X6.3917Y-3.5929
T7
X3.0Y-2.775
X3.0Y-4.425
X7.5Y-2.775
X7.5Y-4.425
T0
M30
